<svg xmlns="http://www.w3.org/2000/svg" width="100.197" height="100.196" viewBox="0 0 100.1973 100.1963"><circle fill="#3F3F3F" cx="50.691" cy="50.645" r="49.898"/><path fill="#F3D971" d="M.894 53.245c1.399 26.299 23.098 47.298 49.797 47.298s48.399-20.9 49.8-47.298H.893z"/><circle fill="#ECECEC" cx="50.392" cy="50.945" r="33.899"/><circle fill="#FFF" cx="50.392" cy="50.945" r="33.899"/><path fill="#EBC24E" d="M22.393 66.644s-1.8-38.499 27.399-38.499 29.398 31 28.999 38.8c-.4 7.399-4.8 10.399-28.2 9.7-23.399-.7-27.099-1.301-28.198-10z"/><ellipse fill="#242626" cx="41.592" cy="48.845" rx="2.601" ry="3.5"/><ellipse fill="#242626" cx="60.491" cy="48.145" rx="2.601" ry="3.499"/><path fill="#EBC24E" d="M14.793 19.146c4.2-.8 3.2 7.2 5.5 10.2 4.9-1 5.9 3.4 3.4 7.8-3.6 6.3-10.3 5.2-14.6 2.2-2.4-1.7-1-4.8 1.5-3.8-4.1-1.8-.8-6.4 2.7-2.4-2.8-3-9.7-7.6-5.6-10.3 2.5-1.7 5.4 2.4 8.6 7.6-1.3-4.2-6.4-10.3-1.5-11.3zM87.39 17.146c-4-1.4-4.2 6.7-6.899 9.3-4.7-1.7-6.4 2.5-4.5 7.2 2.7 6.7 9.5 6.6 14.1 4.3 2.6-1.3 1.699-4.6-.9-4 4.3-1.2 1.7-6.2-2.4-2.8 3.2-2.6 10.7-6.1 7.1-9.4-2.3-2.1-5.601 1.6-9.6 6.3 1.9-4 7.8-9.2 3.1-10.9z"/><path fill="#EBC24E" d="M17.192 37.645l10.601 26.3 3.8-3.8-11.5-26.2zM79.89 32.445l-12.199 26.1 4 1.5 12.8-25.5z"/><path fill="#C5473B" d="M56.292 56.145c1.6-.4 3.3-.2 3.1 1.4-.2 1.6-1.7 3.9-7.9 4.1-6.2.1-8.9-2.6-8.3-4.6.6-2 4.9-.6 4.9-.6s5 1 8.2-.3z"/><g fill="#3F3F3F"><path d="M32.393 90.743l-2.101-.999-1 1.1-1.2-.6 4.9-4.9 1.2.6-.9 6.9-1.2-.6.3-1.5zm-1.3-1.8l1.5.7.4-2.7-1.9 2zM36.592 92.943c.2.101.4.101.6 0 .2-.1.3-.2.4-.399l1.1.4c-.1.5-.5.8-.9 1-.5.2-1 .2-1.5 0-.7-.2-1.1-.6-1.4-1.2-.2-.6-.2-1.2 0-1.9v-.1c.2-.7.6-1.2 1.1-1.5.5-.3 1.1-.4 1.8-.1.6.2 1 .5 1.2 1 .2.4.3.9.1 1.5l-1.1-.4c.1-.2.1-.5 0-.7-.1-.2-.2-.3-.5-.4-.3-.1-.6-.1-.8.1-.2.2-.4.5-.5.9v.1c-.1.4-.2.8-.1 1.1-.1.2.1.4.5.6zM42.192 89.144l-.3 1.2.8.2-.2.9-.8-.2-.6 2.4v.4c0 .1.2.2.3.2h.4l-.1 1h-.4c-.1 0-.3 0-.4-.1-.4-.1-.8-.3-.9-.6-.1-.3-.2-.7-.1-1.2l.6-2.4-.7-.2.2-.9.7.2.3-1.2 1.2.3zM43.992 95.644l-1.3-.2.8-4.8 1.3.2-.8 4.8zm1-6l-1.3-.2.2-1 1.3.2-.2 1zM47.392 94.144l.1.5.1-.4 1-3 1.4.1-2 4.699-1.3-.1-1.3-5 1.4.101.6 3.1zM53.392 96.043c-.1-.1-.1-.2-.1-.3 0-.1-.1-.2-.1-.4-.1.2-.3.4-.5.6s-.5.3-.8.3c-.5 0-.9-.1-1.2-.3-.3-.3-.4-.6-.5-1.1 0-.5.2-.9.5-1.1.4-.3.9-.4 1.6-.5h.7v-.4c0-.2-.1-.4-.2-.5-.1-.1-.3-.2-.6-.2-.2 0-.4.1-.5.2-.1.1-.2.3-.2.4h-1.3c0-.4.1-.8.5-1.1.4-.3.9-.5 1.5-.5s1.1.1 1.4.401c.4.3.6.7.6 1.2l.1 2c0 .2 0 .4.1.6 0 .199.1.4.2.6l-1.2.099zm-1.2-.8c.2 0 .4-.1.6-.199.2-.1.3-.3.3-.4v-.7h-.7c-.3 0-.5.1-.6.2-.1.1-.2.3-.2.5s.1.3.2.4c0 .1.2.2.4.2zM55.392 93.544c-.1-.8-.1-1.4.2-1.9s.7-.8 1.3-.9c.2 0 .5 0 .7.1.199.1.4.2.6.4l-.4-2.6 1.3-.2 1.1 6.9-1.1.199-.2-.6c-.101.2-.3.4-.5.6-.2.1-.4.2-.7.3-.6.1-1.1 0-1.5-.4-.4-.6-.7-1.1-.8-1.9zm1.3-.1c.1.4.2.7.4 1s.4.3.8.3c.2 0 .3-.1.5-.2.1-.1.2-.2.3-.4l-.3-2.1c-.101-.1-.2-.2-.4-.3-.2-.1-.3-.1-.5 0-.3.1-.5.2-.6.5-.1.3-.3.6-.2 1.2zM60.691 92.544c-.2-.7-.2-1.3.1-1.9.3-.6.7-.9 1.4-1.1s1.3-.1 1.8.2c.5.3.9.8 1.1 1.5v.1c.2.7.2 1.3-.1 1.9-.3.6-.7.9-1.4 1.1-.7.2-1.3.1-1.8-.2s-.8-.8-1.1-1.6zm1.3-.3c.1.4.3.7.5 1 .2.2.5.3.8.2.3-.1.5-.3.6-.6.1-.3 0-.7-.1-1.1v-.1c-.1-.4-.3-.7-.5-.9-.2-.2-.5-.3-.8-.2-.3.1-.5.3-.6.6-.1.2 0 .6.1 1.1zM70.09 87.744l1.401-.7.5 1-1.4.7.8 1.7-1.1.6-.8-1.7-1.5.7-.5-1 1.5-.7-.8-1.6 1.1-.6.8 1.6z"/></g><path fill="#A66D59" d="M50.691.947c-4.3 0-7.899 3.5-7.899 7.9 0 .7.1 1.4.3 2.1.9 3.3 4 5.8 7.6 5.8 3.6 0 6.7-2.4 7.6-5.8.2-.7.3-1.4.3-2.1 0-4.3-3.6-7.9-7.9-7.9z"/><path fill="#FFF" d="M54.191 12.646c.2.7-.6 1.3-1.2.9l-2.3-1.3-2.3 1.3c-.599.4-1.399-.2-1.2-.9l.5-2.5-1.8-1.6-.199-.2c-.5-.5-.3-1.4.5-1.5l2.6-.3 1.1-2.4c.3-.6 1.2-.6 1.5 0l1.1 2.4 2.6.3c.7.1 1 1 .5 1.5l-.2.2-1.8 1.6.6 2.5z"/></svg>